<svg xmlns="http://www.w3.org/2000/svg" viewBox="0 0 2149.918 70.0361"><defs><style>.cls-1{opacity:0.49;}.cls-2{fill:#e5e0d9;stroke:#fff;stroke-width:2px;}.cls-3{opacity:0.23;}.cls-4{fill:#2e5c4a;}.cls-5{opacity:0.5;}</style></defs><g id="レイヤー_2" data-name="レイヤー 2"><g id="レイヤー_1-2" data-name="レイヤー 1"><g class="cls-1"><path class="cls-2" d="M575.98,35.0752C575.98,13.9063,588.4521,1,605.1055,1a24.4624,24.4624,0,0,1,18.0527,8.0947l-4.5762,5.4385c-3.4531-3.6846-7.791-6.19-13.3291-6.19-12.4043,0-20.6474,10.16-20.6474,26.5117,0,16.499,7.875,26.8389,20.3213,26.8389,6.2636,0,11.0224-2.7266,15.2128-7.37l4.5772,5.2383c-5.1846,6.0215-11.61,9.4746-20.1377,9.4746C588.2314,69.0361,575.98,56.3916,575.98,35.0752Z"/><path class="cls-2" d="M637.0791,34.7813C637.0791,13.7588,648.6475,1,665.1318,1s28.0528,12.7959,28.0528,33.7813c0,21.0214-11.5684,34.2548-28.0528,34.2548S637.0791,55.8027,637.0791,34.7813Zm47.4795,0c0-16.3516-7.708-26.4385-19.4268-26.4385S645.7051,18.43,645.7051,34.7813s7.707,26.9121,19.4267,26.9121S684.5586,51.1328,684.5586,34.7813Z"/><path class="cls-2" d="M711.2881,2.2h8.6269L743.67,43.4629l7.085,13.59h.4c-.4209-6.6211-1.0625-14.0195-1.0625-20.8828V2.2h7.9316V67.8359h-8.626l-23.7558-41.3-7.085-13.5527h-.4c.4209,6.6416,1.0625,13.6406,1.0625,20.5029v34.35h-7.9316Z"/><path class="cls-2" d="M793.6523,9.27H773.7969V2.2H821.86V9.27H802.0049V67.8359h-8.3526Z"/><path class="cls-2" d="M873.8652,67.8359h8.8467L860.5088,2.2H851.084L828.8809,67.8359h8.5l6.312-19.9951h23.9292ZM845.7969,41.1768l3.1562-9.9991c2.3584-7.3379,4.4639-14.5068,6.4961-22.1181h.4c2.1055,7.5752,4.2109,14.78,6.5693,22.1181l3.1221,9.9991Z"/><path class="cls-2" d="M892.1758,35.0752C892.1758,13.9063,904.6484,1,921.3018,1a24.4624,24.4624,0,0,1,18.0527,8.0947l-4.5762,5.4385c-3.4531-3.6846-7.791-6.19-13.3291-6.19-12.4043,0-20.6474,10.16-20.6474,26.5117,0,16.499,7.875,26.8389,20.3212,26.8389,6.2637,0,11.0225-2.7266,15.2139-7.37l4.5762,5.2383c-5.1846,6.0215-11.61,9.4746-20.1377,9.4746C904.4277,69.0361,892.1758,56.3916,892.1758,35.0752Z"/><path class="cls-2" d="M970.751,9.27H950.8955V2.2H998.959V9.27H979.1035V67.8359H970.751Z"/></g><g class="cls-3"><path class="cls-4" d="M1150.959,35.0752C1150.959,13.9063,1163.4316,1,1180.085,1a24.4624,24.4624,0,0,1,18.0527,8.0947l-4.5762,5.4385c-3.4531-3.6846-7.791-6.19-13.3291-6.19-12.4043,0-20.6474,10.16-20.6474,26.5117,0,16.499,7.875,26.8389,20.3213,26.8389,6.2636,0,11.0224-2.7266,15.2128-7.37l4.5772,5.2383c-5.1846,6.0215-11.61,9.4746-20.1377,9.4746C1163.2109,69.0361,1150.959,56.3916,1150.959,35.0752Z"/><path class="cls-4" d="M1212.0586,34.7813C1212.0586,13.7588,1223.627,1,1240.1113,1s28.0528,12.7959,28.0528,33.7813c0,21.0214-11.5684,34.2548-28.0528,34.2548S1212.0586,55.8027,1212.0586,34.7813Zm47.4795,0c0-16.3516-7.708-26.4385-19.4268-26.4385s-19.4267,10.0869-19.4267,26.4385,7.707,26.9121,19.4267,26.9121S1259.5381,51.1328,1259.5381,34.7813Z"/><path class="cls-4" d="M1286.2676,2.2h8.6269l23.7549,41.2627,7.085,13.59h.4c-.4209-6.6211-1.0625-14.0195-1.0625-20.8828V2.2h7.9316V67.8359h-8.626l-23.7558-41.3-7.085-13.5527h-.4c.4209,6.6416,1.0625,13.6406,1.0625,20.5029v34.35h-7.9316Z"/><path class="cls-4" d="M1368.6318,9.27h-19.8554V2.2H1396.84V9.27h-19.8554V67.8359h-8.3526Z"/><path class="cls-4" d="M1448.8447,67.8359h8.8467L1435.4883,2.2h-9.4248L1403.86,67.8359h8.5l6.312-19.9951h23.9292Zm-28.0683-26.6591,3.1562-9.9991c2.3584-7.3379,4.4639-14.5068,6.4961-22.1181h.4c2.1055,7.5752,4.2109,14.78,6.5693,22.1181l3.1221,9.9991Z"/><path class="cls-4" d="M1467.1553,35.0752c0-21.1689,12.4726-34.0752,29.126-34.0752a24.4624,24.4624,0,0,1,18.0527,8.0947l-4.5762,5.4385c-3.4531-3.6846-7.791-6.19-13.3291-6.19-12.4043,0-20.6474,10.16-20.6474,26.5117,0,16.499,7.875,26.8389,20.3212,26.8389,6.2637,0,11.0225-2.7266,15.2139-7.37l4.5762,5.2383c-5.1846,6.0215-11.61,9.4746-20.1377,9.4746C1479.4072,69.0361,1467.1553,56.3916,1467.1553,35.0752Z"/><path class="cls-4" d="M1545.7305,9.27H1525.875V2.2h48.0635V9.27H1554.083V67.8359h-8.3525Z"/></g><g class="cls-5"><path class="cls-2" d="M1725.9385,35.0752c0-21.1689,12.4726-34.0752,29.126-34.0752a24.4624,24.4624,0,0,1,18.0527,8.0947l-4.5762,5.4385c-3.4531-3.6846-7.791-6.19-13.3291-6.19-12.4043,0-20.6474,10.16-20.6474,26.5117,0,16.499,7.875,26.8389,20.3212,26.8389,6.2637,0,11.0225-2.7266,15.2129-7.37l4.5772,5.2383c-5.1846,6.0215-11.61,9.4746-20.1377,9.4746C1738.19,69.0361,1725.9385,56.3916,1725.9385,35.0752Z"/><path class="cls-2" d="M1787.0381,34.7813C1787.0381,13.7588,1798.6064,1,1815.0908,1s28.0528,12.7959,28.0528,33.7813c0,21.0214-11.5684,34.2548-28.0528,34.2548S1787.0381,55.8027,1787.0381,34.7813Zm47.4795,0c0-16.3516-7.708-26.4385-19.4268-26.4385s-19.4267,10.0869-19.4267,26.4385,7.707,26.9121,19.4267,26.9121S1834.5176,51.1328,1834.5176,34.7813Z"/><path class="cls-2" d="M1861.2471,2.2h8.6269l23.7549,41.2627,7.085,13.59h.4c-.4209-6.6211-1.0625-14.0195-1.0625-20.8828V2.2h7.9316V67.8359h-8.626l-23.7558-41.3-7.085-13.5527h-.4c.4209,6.6416,1.0625,13.6406,1.0625,20.5029v34.35h-7.9316Z"/><path class="cls-2" d="M1943.6113,9.27h-19.8554V2.2h48.0634V9.27h-19.8554V67.8359h-8.3526Z"/><path class="cls-2" d="M2023.8242,67.8359h8.8467L2010.4678,2.2h-9.4248L1978.84,67.8359h8.5l6.3121-19.9951h23.9292Zm-28.0683-26.6591,3.1562-9.9991c2.3584-7.3379,4.4639-14.5068,6.4961-22.1181h.4c2.1055,7.5752,4.2109,14.78,6.5693,22.1181l3.1221,9.9991Z"/><path class="cls-2" d="M2042.1348,35.0752C2042.1348,13.9063,2054.6074,1,2071.2607,1a24.4624,24.4624,0,0,1,18.0528,8.0947l-4.5762,5.4385c-3.4531-3.6846-7.791-6.19-13.3291-6.19-12.4043,0-20.6475,10.16-20.6475,26.5117,0,16.499,7.875,26.8389,20.3213,26.8389,6.2637,0,11.0225-2.7266,15.2139-7.37l4.5762,5.2383c-5.1846,6.0215-11.61,9.4746-20.1377,9.4746C2054.3867,69.0361,2042.1348,56.3916,2042.1348,35.0752Z"/><path class="cls-2" d="M2120.71,9.27h-19.8555V2.2h48.0635V9.27h-19.8555V67.8359H2120.71Z"/></g><g class="cls-1"><path class="cls-2" d="M1,35.0752C1,13.9063,13.4727,1,30.126,1A24.4624,24.4624,0,0,1,48.1787,9.0947l-4.5762,5.4385c-3.4531-3.6846-7.791-6.19-13.3291-6.19-12.4043,0-20.6474,10.16-20.6474,26.5117,0,16.499,7.875,26.8389,20.3213,26.8389,6.2636,0,11.0224-2.7266,15.2129-7.37l4.5771,5.2383C44.5527,65.583,38.127,69.0361,29.6,69.0361,13.252,69.0361,1,56.3916,1,35.0752Z"/><path class="cls-2" d="M62.1,34.7813C62.1,13.7588,73.668,1,90.1523,1s28.0528,12.7959,28.0528,33.7813c0,21.0214-11.5684,34.2548-28.0528,34.2548S62.1,55.8027,62.1,34.7813Zm47.4795,0c0-16.3516-7.708-26.4385-19.4268-26.4385S70.7256,18.43,70.7256,34.7813s7.707,26.9121,19.4267,26.9121S109.5791,51.1328,109.5791,34.7813Z"/><path class="cls-2" d="M136.3086,2.2h8.6269L168.69,43.4629l7.085,13.59h.4c-.4209-6.6211-1.0625-14.0195-1.0625-20.8828V2.2h7.9316V67.8359h-8.626l-23.7558-41.3-7.085-13.5527h-.4c.4209,6.6416,1.0625,13.6406,1.0625,20.5029v34.35h-7.9316Z"/><path class="cls-2" d="M218.6729,9.27H198.8174V2.2h48.0635V9.27H227.0254V67.8359h-8.3525Z"/><path class="cls-2" d="M298.8857,67.8359h8.8467L285.5293,2.2h-9.4248L253.9014,67.8359h8.5l6.312-19.9951h23.9292ZM270.8174,41.1768l3.1562-9.9991C276.332,23.84,278.4375,16.6709,280.47,9.06h.4c2.1055,7.5752,4.211,14.78,6.5694,22.1181l3.122,9.9991Z"/><path class="cls-2" d="M317.1963,35.0752C317.1963,13.9063,329.6689,1,346.3223,1A24.4624,24.4624,0,0,1,364.375,9.0947l-4.5762,5.4385c-3.4531-3.6846-7.791-6.19-13.3291-6.19-12.4043,0-20.6474,10.16-20.6474,26.5117,0,16.499,7.875,26.8389,20.3213,26.8389,6.2636,0,11.0224-2.7266,15.2138-7.37l4.5762,5.2383c-5.1846,6.0215-11.61,9.4746-20.1377,9.4746C329.4482,69.0361,317.1963,56.3916,317.1963,35.0752Z"/><path class="cls-2" d="M395.7715,9.27H375.916V2.2H423.98V9.27H404.124V67.8359h-8.3525Z"/></g></g></g></svg>