<svg xmlns="http://www.w3.org/2000/svg" viewBox="0 0 2190.4795 67.6045"><defs><style>.cls-1{opacity:0.5;}.cls-2{fill:#e5e0d9;stroke:#fff;stroke-width:2px;}.cls-3{opacity:0.26;}.cls-4{fill:#2e5c4a;}</style></defs><g id="レイヤー_2" data-name="レイヤー 2"><g id="レイヤー_1-2" data-name="レイヤー 1"><g class="cls-1"><path class="cls-2" d="M1,1H41.6025V8.1006H9.4v20.501H36.6025v7.1005H9.4V59.5034H42.6025V66.604H1Z"/><path class="cls-2" d="M57.7988,1H66.8L77.3,36.4023c2.3008,7.7,3.9,14.0005,6.3008,21.6011h.4c2.3994-7.6006,4.1-13.9009,6.3-21.6011L100.8018,1h8.6L88.6006,66.604H78.8Z"/><path class="cls-2" d="M128.998,1h40.6026V8.1006H137.3984v20.501h27.2022v7.1005H137.3984V59.5034h33.2022V66.604H128.998Z"/><path class="cls-2" d="M189.7969,1h9.2011l21.001,41.2026L226.3,55.8032h.1992c-.3-6.5-1.1-13.9009-1.1-20.8012V1h8V66.604h-9.2l-21.001-41.2026-6.3007-13.6006h-.2c.3007,6.7,1.1006,13.7007,1.1006,20.501V66.604h-8.001Z"/><path class="cls-2" d="M271.3975,8.1006H249.6963V1H301.499V8.1006H279.7979V66.604h-8.4Z"/></g><g class="cls-1"><path class="cls-2" d="M472.9961,1h40.6025V8.1006H481.3965v20.501h27.2021v7.1005H481.3965V59.5034h33.2021V66.604H472.9961Z"/><path class="cls-2" d="M529.7949,1h9.001l10.5,35.4023c2.3008,7.7,3.9,14.0005,6.3008,21.6011h.4c2.3994-7.6006,4.1-13.9009,6.3-21.6011L572.7979,1h8.6005L560.5967,66.604h-9.8008Z"/><path class="cls-2" d="M600.9941,1h40.6026V8.1006H609.3945v20.501h27.2022v7.1005H609.3945V59.5034h33.2022V66.604H600.9941Z"/><path class="cls-2" d="M661.793,1h9.2011l21.001,41.2026,6.3008,13.6006h.1992c-.3-6.5-1.1-13.9009-1.1-20.8012V1h8V66.604h-9.2l-21.001-41.2026-6.3007-13.6006h-.2c.3007,6.7,1.1005,13.7007,1.1005,20.501V66.604H661.793Z"/><path class="cls-2" d="M743.3936,8.1006H721.6924V1h51.8027V8.1006H751.7939V66.604h-8.4Z"/></g><g class="cls-1"><path class="cls-2" d="M1416.9854,1.0005h40.6025V8.1011h-32.2022v20.501h27.2022v7.1h-27.2022V59.5039h33.2022v7.1006h-41.6025Z"/><path class="cls-2" d="M1473.7842,1.0005h9.001l10.5,35.4023c2.3007,7.7,3.9,14.0005,6.3007,21.6011h.4c2.3994-7.6006,4.1-13.9009,6.3-21.6011l10.501-35.4023h8.6006l-20.8018,65.604h-9.8007Z"/><path class="cls-2" d="M1544.9834,1.0005h40.6025V8.1011h-32.2021v20.501h27.2021v7.1h-27.2021V59.5039h33.2021v7.1006h-41.6025Z"/><path class="cls-2" d="M1605.7822,1.0005h9.2012l21.001,41.2026,6.3008,13.6006h.1992c-.3-6.5005-1.1-13.9009-1.1-20.8013V1.0005h8v65.604h-9.2l-21.001-41.2026-6.3008-13.6006h-.2c.3008,6.7,1.1006,13.7007,1.1006,20.5009V66.6045h-8.001Z"/><path class="cls-2" d="M1687.3828,8.1011h-21.7012V1.0005h51.8028V8.1011h-21.7012V66.6045h-8.4Z"/></g><g class="cls-1"><path class="cls-2" d="M1888.9805,1.0005h40.6025V8.1011h-32.2021v20.501h27.2021v7.1h-27.2021V59.5039h33.2021v7.1006h-41.6025Z"/><path class="cls-2" d="M1945.7793,1.0005h9.001l10.5,35.4023c2.3008,7.7,3.9,14.0005,6.3008,21.6011h.4c2.4-7.6006,4.1-13.9009,6.3-21.6011l10.5009-35.4023h8.6006l-20.8017,65.604H1966.78Z"/><path class="cls-2" d="M2016.9785,1.0005h40.6026V8.1011h-32.2022v20.501h27.2022v7.1h-27.2022V59.5039h33.2022v7.1006h-41.6026Z"/><path class="cls-2" d="M2077.7773,1.0005h9.2012l21.001,41.2026,6.3008,13.6006h.1992c-.3-6.5005-1.1-13.9009-1.1-20.8013V1.0005h8v65.604h-9.2l-21.001-41.2026-6.3008-13.6006h-.2c.3008,6.7,1.1006,13.7007,1.1006,20.5009V66.6045h-8.001Z"/><path class="cls-2" d="M2159.3779,8.1011h-21.7011V1.0005H2189.48V8.1011h-21.7012V66.6045h-8.4Z"/></g><g class="cls-3"><path class="cls-4" d="M944.99,1h40.6036V8.1006H953.3906v20.501h27.2032v7.1005H953.3906V59.5034h33.2032V66.604H944.99Z"/><path class="cls-4" d="M1001.7891,1h9.0019l10.5,35.4023c2.3008,7.7,3.9,14.0005,6.3008,21.6011h.4c2.3984-7.6006,4.1-13.9009,6.2988-21.6011L1044.793,1h8.6l-20.8008,65.604h-9.8008Z"/><path class="cls-4" d="M1072.9883,1h40.6035V8.1006h-32.2031v20.501h27.2031v7.1005h-27.2031V59.5034h33.2031V66.604h-41.6035Z"/><path class="cls-4" d="M1133.7871,1h9.2012L1163.99,42.2026l6.3008,13.6006h.1992c-.3007-6.5-1.1-13.9009-1.1-20.8012V1h8V66.604H1168.19l-21-41.2026-6.3008-13.6006h-.2012c.3008,6.7,1.1016,13.7007,1.1016,20.501V66.604h-8.002Z"/><path class="cls-4" d="M1215.3887,8.1006h-21.7012V1H1245.49V8.1006h-21.7011V66.604h-8.4Z"/></g></g></g></svg>