<svg xmlns="http://www.w3.org/2000/svg" viewBox="0 0 937.5522 293.7721"><defs><style>.cls-1{fill:none;stroke:#71e1b6;stroke-miterlimit:10;stroke-width:28px;}.cls-2{fill:#5c3b27;}</style></defs><g id="レイヤー_2" data-name="レイヤー 2"><g id="レイヤー_1-2" data-name="レイヤー 1"><text/><path class="cls-1" d="M124.71,284.8785s-38.45-46.7442-18.6434-111.1628S200.2911,70.925,200.2911,70.925,232.85,60.46,257.268,75.5762c24.4185,11.6279,25.5813,40.6976-11.628,55.8139-20.93,8.1395-54.6512,15.1163-69.7675,3.4884S128.1981,62.7857,95.64,37.2041,44.4772,5.8087,25.8725,26.7389s-12.7907,41.8605,0,53.4884S74.71,95.3436,93.3144,96.5064"/><path class="cls-2" d="M347.4419,168.4617H394.34v61.5016H383.8255l-3.5883-7.8442q-13.7691,9.7635-29.1236,9.7635-25.2849,0-39.2625-15.1459t-13.9777-42.684q0-26.7868,14.8122-43.3515t38.7618-16.5645q31.5436,0,38.3864,32.2111l-15.5215,7.0931v-2.7538l-.25-6.1751q-1.5864-20.11-18.609-20.1111-12.5173,0-17.107,10.6814-4.59,10.683-4.59,39.8049,0,27.2059,3.7135,36.9677,3.7119,9.7635,14.1445,9.7635,12.267,0,12.267-13.6855V179.8941H347.4419Z"/><path class="cls-2" d="M517.3712,161.062q30.2659,0,30.2661,35.8516t-30.8247,35.8516q-30.8247,0-30.8242-36.6641Q485.9884,161.062,517.3712,161.062Zm-.5586,5.5352q-5.688,0-7.6933,6.2715-2.0068,6.2724-2.0059,24.0449,0,17.7744,2.0059,24.0449,2.0054,6.2725,7.6933,6.2715t7.6939-6.2715q2.0054-6.2709,2.0058-24.0449,0-17.7218-2.0058-24.0195Q522.5,166.5981,516.8126,166.5972Z"/><path class="cls-2" d="M440.7228,161.2386q30.265,0,30.2656,35.8515t-30.8242,35.8516q-30.8247,0-30.8242-36.6641Q409.34,161.2385,440.7228,161.2386Zm-.5586,5.5351q-5.688,0-7.6934,6.2715T430.465,197.09q0,17.7744,2.0058,24.0449,2.0055,6.2726,7.6934,6.2715t7.6934-6.2715q2.0054-6.2709,2.0058-24.0449,0-17.7216-2.0058-24.0195Q445.8508,166.7747,440.1642,166.7737Z"/><path class="cls-2" d="M562.6373,232.0591V162.7427H591.38q30.6211,0,30.6211,34.7344,0,34.582-31.7383,34.582Zm20.1094-5.7383h5.2813q7.2612,0,10.0547-6.2715,2.7919-6.2709,2.7929-22.6738t-2.7676-22.6484q-2.7686-6.2462-10.08-6.2461h-5.2813Z"/><path class="cls-2" d="M685.4459,181.9307l-9.3437,1.7266a22.6449,22.6449,0,0,0,.6094-4.6719q0-12.085-14.6758-12.086-11.5782,0-11.5781,8.3282,0,6.246,12.9492,10.7148,24.9843,8.5825,24.9843,25.3906,0,9.8526-7.0078,15.8184-7.0077,5.9677-18.6367,5.9668-25.746,0-25.7461-19.957a38.8544,38.8544,0,0,1,.2539-4.0118l9.6992-2.1328a31.9134,31.9134,0,0,0-1.1171,7.668q0,12.8994,14.7773,12.8984,11.8316,0,11.832-9.2929,0-6.9052-14.1679-12.1368-20.4654-7.5146-20.4649-24.0195a18.6658,18.6658,0,0,1,6.83-15.0566q6.8291-5.7129,17.9512-5.7129Q685.4459,161.3643,685.4459,181.9307Z"/><path class="cls-2" d="M734.2806,126.82v95.7881h43.76v10.6865H703.3912V126.82Z"/><path class="cls-2" d="M813.15,162.9192v69.3164H793.0405V162.9192Z"/><path class="cls-2" d="M873.396,163.0957v6.9571H848.2592v23.1054h21.3282v6.9571H848.2592v32.2968H828.15V163.0957Z"/><path class="cls-2" d="M933.3374,163.2722v6.9571H908.5053v20.9726h20.8711v6.9571H908.5053v27.4726h29.0469v6.957H888.396V163.2722Z"/></g></g></svg>