<svg xmlns="http://www.w3.org/2000/svg" viewBox="0 0 2171.4707 70.0361"><defs><style>.cls-1{opacity:0.42;}.cls-2{fill:#e5e0d9;stroke:#fff;stroke-width:2px;}.cls-3{opacity:0.2;}.cls-4{fill:#2e5c4a;}</style></defs><g id="レイヤー_2" data-name="レイヤー 2"><g id="レイヤー_1-2" data-name="レイヤー 1"><g class="cls-1"><path class="cls-2" d="M581.8677,2.2h18.7451c14.7065,0,24.6318,4.9478,24.6318,19.3262,0,13.8154-9.8725,20.2734-24.2319,20.2734H590.22V67.8359h-8.3525ZM599.96,35.0244c11.4775,0,16.9531-4.1587,16.9531-13.4985,0-9.4663-5.8228-12.5513-17.353-12.5513h-9.34v26.05Z"/><path class="cls-2" d="M687.9482,67.8359l-16.722-28.6837c8.9119-2.185,14.765-8.255,14.765-18.4793C685.9912,7,676.3926,2.2,663.0234,2.2H642.4673V67.8359H650.82V40.0933h11.86l15.8,27.7426ZM650.82,8.9746h11.0039c10.2134,0,15.836,3.0645,15.836,11.6983,0,8.5078-5.6226,12.6459-15.836,12.6459H650.82Z"/><path class="cls-2" d="M699.5542,34.7813C699.5542,13.7588,711.123,1,727.6069,1S755.66,13.7959,755.66,34.7813c0,21.0219-11.5689,34.2548-28.0533,34.2548S699.5542,55.8032,699.5542,34.7813Zm47.48,0c0-16.3516-7.708-26.4385-19.4273-26.4385S708.18,18.43,708.18,34.7813s7.708,26.9121,19.4267,26.9121S747.0342,51.1323,747.0342,34.7813Z"/><path class="cls-2" d="M773.7642,2.2h16.42c20.1806,0,31.0005,11.729,31.0005,32.5816s-10.82,33.0546-30.6324,33.0546h-16.788Zm15.7993,58.7881c15.3418,0,22.9951-9.6152,22.9951-26.2065s-7.6533-25.733-22.9951-25.733h-7.4468v51.94Z"/><path class="cls-2" d="M838.99,40.7319V2.2h8.3521V40.9624c0,15.772,6.666,20.731,15.2363,20.731,8.6968,0,15.5625-4.959,15.5625-20.731V2.2h8.0054V40.7319c0,21.0635-10.17,28.3042-23.5679,28.3042S838.99,61.7954,838.99,40.7319Z"/><path class="cls-2" d="M903.9507,35.0757C903.9507,13.9063,916.4233,1,933.0771,1a24.46,24.46,0,0,1,18.0523,8.0947l-4.5762,5.4385c-3.4531-3.6846-7.791-6.19-13.3286-6.19-12.4043,0-20.6479,10.1606-20.6479,26.5117,0,16.499,7.8759,26.8389,20.3212,26.8389,6.2647,0,11.0235-2.7266,15.2139-7.37l4.5762,5.2388c-5.1841,6.021-11.61,9.4741-20.1372,9.4741C916.2026,69.0361,903.9507,56.3921,903.9507,35.0757Z"/><path class="cls-2" d="M982.5269,9.269H962.6714V2.2h48.064V9.269h-19.856V67.8359h-8.3525Z"/></g><g class="cls-1"><path class="cls-2" d="M1,2.2H19.7451C34.4517,2.2,44.377,7.1475,44.377,21.5259c0,13.8154-9.8726,20.2734-24.232,20.2734H9.3525V67.8359H1ZM19.0923,35.0244c11.4775,0,16.9531-4.1587,16.9531-13.4985,0-9.4663-5.8227-12.5513-17.353-12.5513h-9.34v26.05Z"/><path class="cls-2" d="M107.0806,67.8359,90.3585,39.1522c8.9119-2.185,14.765-8.255,14.765-18.4793C105.1235,7,95.5249,2.2,82.1558,2.2H61.6V67.8359h8.3525V40.0933h11.86l15.8,27.7426ZM69.9521,8.9746h11.004c10.2133,0,15.8359,3.0645,15.8359,11.6983,0,8.5078-5.6226,12.6459-15.8359,12.6459H69.9521Z"/><path class="cls-2" d="M118.6865,34.7813C118.6865,13.7588,130.2554,1,146.7393,1s28.0532,12.7959,28.0532,33.7813c0,21.0219-11.5689,34.2548-28.0532,34.2548S118.6865,55.8032,118.6865,34.7813Zm47.48,0c0-16.3516-7.708-26.4385-19.4272-26.4385S127.3125,18.43,127.3125,34.7813s7.708,26.9121,19.4268,26.9121S166.1665,51.1323,166.1665,34.7813Z"/><path class="cls-2" d="M192.8965,2.2h16.42c20.1807,0,31.0005,11.729,31.0005,32.5816s-10.82,33.0546-30.6323,33.0546H192.8965Zm15.7993,58.7881c15.3418,0,22.9951-9.6152,22.9951-26.2065s-7.6533-25.733-22.9951-25.733H201.249v51.94Z"/><path class="cls-2" d="M258.1221,40.7319V2.2h8.352V40.9624c0,15.772,6.666,20.731,15.2363,20.731,8.6968,0,15.5625-4.959,15.5625-20.731V2.2h8.0054V40.7319c0,21.0635-10.17,28.3042-23.5679,28.3042S258.1221,61.7954,258.1221,40.7319Z"/><path class="cls-2" d="M323.083,35.0757C323.083,13.9063,335.5557,1,352.21,1a24.4594,24.4594,0,0,1,18.0522,8.0947l-4.5762,5.4385c-3.4531-3.6846-7.791-6.19-13.3286-6.19-12.4043,0-20.6479,10.1606-20.6479,26.5117,0,16.499,7.876,26.8389,20.3213,26.8389,6.2646,0,11.0234-2.7266,15.2138-7.37L371.82,59.562c-5.1841,6.021-11.61,9.4741-20.1372,9.4741C335.335,69.0361,323.083,56.3921,323.083,35.0757Z"/><path class="cls-2" d="M401.6592,9.269H381.8037V2.2h48.064V9.269h-19.856V67.8359h-8.3525Z"/></g><g class="cls-1"><path class="cls-2" d="M1741.603,2.2h18.7451c14.7066,0,24.6319,4.9478,24.6319,19.3262,0,13.8154-9.8726,20.2734-24.232,20.2734h-10.7924V67.8359h-8.3526Zm18.0923,32.8247c11.4776,0,16.9531-4.1587,16.9531-13.4985,0-9.4663-5.8227-12.5513-17.353-12.5513h-9.34v26.05Z"/><path class="cls-2" d="M1847.6836,67.8359l-16.7221-28.6837c8.912-2.185,14.7651-8.255,14.7651-18.4793C1845.7266,7,1836.1279,2.2,1822.7588,2.2h-20.5562V67.8359h8.3526V40.0933h11.86l15.8,27.7426ZM1810.5552,8.9746h11.0039c10.2134,0,15.8359,3.0645,15.8359,11.6983,0,8.5078-5.6225,12.6459-15.8359,12.6459h-11.0039Z"/><path class="cls-2" d="M1859.29,34.7813C1859.29,13.7588,1870.8584,1,1887.3423,1s28.0532,12.7959,28.0532,33.7813c0,21.0219-11.5688,34.2548-28.0532,34.2548S1859.29,55.8032,1859.29,34.7813Zm47.48,0c0-16.3516-7.708-26.4385-19.4272-26.4385s-19.4268,10.0869-19.4268,26.4385,7.708,26.9121,19.4268,26.9121S1906.77,51.1323,1906.77,34.7813Z"/><path class="cls-2" d="M1933.5,2.2h16.42c20.1807,0,31.0005,11.729,31.0005,32.5816s-10.82,33.0546-30.6323,33.0546H1933.5Zm15.7993,58.7881c15.3418,0,22.9951-9.6152,22.9951-26.2065s-7.6533-25.733-22.9951-25.733h-7.4467v51.94Z"/><path class="cls-2" d="M1998.7251,40.7319V2.2h8.352V40.9624c0,15.772,6.6661,20.731,15.2364,20.731,8.6968,0,15.5625-4.959,15.5625-20.731V2.2h8.0053V40.7319c0,21.0635-10.17,28.3042-23.5678,28.3042S1998.7251,61.7954,1998.7251,40.7319Z"/><path class="cls-2" d="M2063.686,35.0757C2063.686,13.9063,2076.1587,1,2092.8125,1a24.4592,24.4592,0,0,1,18.0522,8.0947l-4.5761,5.4385c-3.4532-3.6846-7.791-6.19-13.3286-6.19-12.4043,0-20.648,10.1606-20.648,26.5117,0,16.499,7.876,26.8389,20.3213,26.8389,6.2646,0,11.0234-2.7266,15.2139-7.37l4.5761,5.2388c-5.184,6.021-11.61,9.4741-20.1372,9.4741C2075.938,69.0361,2063.686,56.3921,2063.686,35.0757Z"/><path class="cls-2" d="M2142.2622,9.269h-19.8555V2.2h48.064V9.269h-19.856V67.8359h-8.3525Z"/></g><g class="cls-3"><path class="cls-4" d="M1161.7354,2.2h18.7451c14.7065,0,24.6318,4.9478,24.6318,19.3262,0,13.8154-9.8726,20.2734-24.2319,20.2734h-10.7925V67.8359h-8.3525Zm18.0922,32.8247c11.4776,0,16.9532-4.1587,16.9532-13.4985,0-9.4663-5.8228-12.5513-17.3531-12.5513h-9.34v26.05Z"/><path class="cls-4" d="M1267.8159,67.8359l-16.722-28.6837c8.9119-2.185,14.765-8.255,14.765-18.4793C1265.8589,7,1256.26,2.2,1242.8911,2.2H1222.335V67.8359h8.3525V40.0933h11.86l15.8,27.7426ZM1230.6875,8.9746h11.0039c10.2134,0,15.8359,3.0645,15.8359,11.6983,0,8.5078-5.6225,12.6459-15.8359,12.6459h-11.0039Z"/><path class="cls-4" d="M1279.4219,34.7813C1279.4219,13.7588,1290.9907,1,1307.4746,1s28.0532,12.7959,28.0532,33.7813c0,21.0219-11.5688,34.2548-28.0532,34.2548S1279.4219,55.8032,1279.4219,34.7813Zm47.48,0c0-16.3516-7.7081-26.4385-19.4273-26.4385s-19.4267,10.0869-19.4267,26.4385,7.708,26.9121,19.4267,26.9121S1326.9019,51.1323,1326.9019,34.7813Z"/><path class="cls-4" d="M1353.6318,2.2h16.42c20.1806,0,31,11.729,31,32.5816s-10.82,33.0546-30.6323,33.0546h-16.7881Zm15.7994,58.7881c15.3417,0,22.9951-9.6152,22.9951-26.2065s-7.6534-25.733-22.9951-25.733h-7.4468v51.94Z"/><path class="cls-4" d="M1418.8574,40.7319V2.2h8.3521V40.9624c0,15.772,6.666,20.731,15.2363,20.731,8.6968,0,15.5625-4.959,15.5625-20.731V2.2h8.0054V40.7319c0,21.0635-10.17,28.3042-23.5679,28.3042S1418.8574,61.7954,1418.8574,40.7319Z"/><path class="cls-4" d="M1483.8184,35.0757C1483.8184,13.9063,1496.291,1,1512.9448,1a24.46,24.46,0,0,1,18.0523,8.0947l-4.5762,5.4385c-3.4531-3.6846-7.791-6.19-13.3286-6.19-12.4043,0-20.648,10.1606-20.648,26.5117,0,16.499,7.876,26.8389,20.3213,26.8389,6.2647,0,11.0235-2.7266,15.2139-7.37l4.5762,5.2388c-5.1841,6.021-11.61,9.4741-20.1372,9.4741C1496.07,69.0361,1483.8184,56.3921,1483.8184,35.0757Z"/><path class="cls-4" d="M1562.3945,9.269h-19.8554V2.2h48.0639V9.269h-19.8559V67.8359h-8.3526Z"/></g></g></g></svg>